PathFileType	4	(X/Y/Z)	C:/Users/opensim2020/Desktop/walking_exp_matlab/subject01_walking06_straight_03.trc	
DataRate	CameraRate	NumFrames	NumMarkers	Units	OrigDataRate	OrigDataStartFrame	OrigNumFrames	
100.00	100.00	7	43	mm	100.00	2259	206	
Frame#	Time	LFHD			RFHD			LBHD			RBHD			C7			T10			CLAV			STRN			RBAK			LSHO			LUPA			LELB			LFRM			LWRA			LWRB			LFIN			RSHO			RUPA			RELB			RFRM			RWRA			RWRB			RFIN			LASI			RASI			LPSI			RPSI			LTHI			LKNE			LTIB			LANK			LHEE			LTOE			RTHI			RKNE			RTIB			RANK			RHEE			RTOE			*39			*40			*41			*42			
		X1	Y1	Z1	X2	Y2	Z2	X3	Y3	Z3	X4	Y4	Z4	X5	Y5	Z5	X6	Y6	Z6	X7	Y7	Z7	X8	Y8	Z8	X9	Y9	Z9	X10	Y10	Z10	X11	Y11	Z11	X12	Y12	Z12	X13	Y13	Z13	X14	Y14	Z14	X15	Y15	Z15	X16	Y16	Z16	X17	Y17	Z17	X18	Y18	Z18	X19	Y19	Z19	X20	Y20	Z20	X21	Y21	Z21	X22	Y22	Z22	X23	Y23	Z23	X24	Y24	Z24	X25	Y25	Z25	X26	Y26	Z26	X27	Y27	Z27	X28	Y28	Z28	X29	Y29	Z29	X30	Y30	Z30	X31	Y31	Z31	X32	Y32	Z32	X33	Y33	Z33	X34	Y34	Z34	X35	Y35	Z35	X36	Y36	Z36	X37	Y37	Z37	X38	Y38	Z38	X39	Y39	Z39	X40	Y40	Z40	X41	Y41	Z41	X42	Y42	Z42	X43	Y43	Z43	

155	1.540	1330.99377	426.38013	1660.00916	1437.84973	465.47482	1672.11816	1369.31128	311.20337	1627.17957	1482.66199	349.67194	1639.34778	1418.44238	269.42435	1434.65149	1432.53015	231.85777	1140.07385	1416.20081	411.42886	1362.40173	1418.20459	452.27963	1208.44202	1502.57336	214.39626	1242.17297	1256.31104	349.56561	1387.32190	1178.57434	319.00565	1200.66479	1179.42163	307.40024	1049.56555	1158.19043	351.65372	943.10596	1185.45154	434.70572	832.35217	1156.20374	382.45508	824.97437	1154.07947	434.38431	756.99792	1568.82996	354.73532	1397.48120	1678.08704	298.24802	1202.27881	1682.68811	295.37411	1076.41638	1712.15540	322.90448	958.31848	1686.90259	399.32419	840.32666	1730.97229	360.73392	842.24780	1723.51892	395.94836	763.56866	1332.67371	412.60095	935.64026	1550.22864	399.39136	937.62640	1375.16687	222.70172	945.12384	1519.68982	217.46201	943.28815	1283.68750	406.21313	604.34149	1305.61621	408.41953	470.10123	1298.13770	361.95825	285.21213	1356.98511	335.99680	70.59788	1407.50146	288.48438	42.17981	1355.94324	483.27859	35.39214	1618.29321	398.10339	604.42041	1605.90796	425.23975	450.85791	1594.58911	277.74796	358.07117	1538.87988	129.28673	218.59222	1475.45813	82.91228	224.87376	1557.70874	170.54164	80.53091	1414.88049	450.81424	1705.24475	-3101.80688	1973.22302	1023.42322	-3140.75781	2012.52173	1021.98108			 
156	1.550	1330.37915	436.58929	1660.26233	1437.20569	475.99557	1672.10791	1368.86621	321.35355	1627.82349	1482.23328	360.10284	1639.74390	1417.56177	278.87366	1435.19141	1431.75269	241.02832	1140.64111	1415.46716	420.84109	1362.67566	1417.19360	461.37225	1208.62988	1501.52771	223.53929	1242.71619	1255.49585	359.08469	1387.72314	1177.74988	329.68359	1201.06689	1177.59082	320.04889	1049.85657	1156.36829	366.96136	944.42816	1183.42102	453.08655	836.02588	1154.57935	400.93427	827.15320	1151.61633	454.81097	761.03900	1568.20313	363.97067	1397.77856	1676.82043	306.09006	1202.57922	1681.18347	302.30627	1077.03943	1711.00562	327.55176	958.71686	1686.12744	401.01624	838.73846	1730.34326	362.59613	841.88477	1722.58594	395.40802	761.76990	1331.16919	420.99091	935.97485	1548.53296	408.81195	938.34760	1375.30078	231.29926	945.55182	1519.98828	227.07294	944.48315	1283.17395	411.38431	603.88934	1305.13208	411.93204	469.60202	1297.97327	363.91794	285.17404	1356.87024	335.65891	70.74750	1407.43811	288.14645	42.52613	1355.98096	483.35669	35.32863	1617.42590	413.14462	606.64594	1605.01978	443.04825	453.50342	1593.69238	296.93597	358.26007	1538.22083	151.70633	215.62415	1475.11206	104.15338	219.50615	1558.58118	199.11261	80.41785	1414.24780	461.38843	1705.27966	-3101.90356	1973.11877	1023.35846	-3140.78247	2012.45532	1022.06476			 
157	1.560	1329.88904	446.79269	1660.43994	1436.64197	486.43808	1672.04346	1368.62183	331.52881	1628.48340	1481.78943	370.47705	1640.09436	1416.82971	288.32950	1435.63428	1431.05066	250.12755	1141.10364	1414.72754	430.16266	1362.89307	1416.21021	470.43961	1208.80713	1500.53052	232.65364	1243.13025	1254.88940	368.55228	1388.26013	1176.83337	340.34805	1201.55334	1175.87524	332.63388	1050.14514	1154.77759	382.49353	945.95636	1181.41638	471.34882	839.95966	1153.00000	419.28384	829.53094	1149.22705	474.98697	765.22314	1567.55823	373.12448	1397.93115	1675.61450	313.68466	1202.85767	1679.64185	308.93054	1077.55615	1709.83704	332.14102	959.08783	1685.44592	402.91003	837.33185	1729.60022	364.53549	841.57349	1721.95325	395.16220	760.38263	1329.69604	429.63904	936.32751	1546.54602	418.05728	939.02838	1375.54456	239.88583	945.97803	1520.58740	236.53481	945.65710	1282.72815	416.59714	603.51166	1304.65088	415.25479	469.18304	1297.67151	365.84558	285.32294	1356.93652	335.82721	70.91177	1407.54553	288.23907	42.82768	1355.96216	483.39844	35.21101	1616.53625	427.91690	608.71387	1604.24988	460.56207	456.40765	1592.71826	316.15131	357.83017	1537.46936	174.39731	211.57356	1475.09204	126.04939	212.90590	1559.12378	228.68997	79.45306	1413.77710	471.96854	1705.26709	-3101.84253	1973.15894	1023.34686	-3140.64746	2012.59741	1022.01959			 
158	1.570	1329.48596	456.96777	1660.62085	1436.19958	496.88889	1671.92529	1368.40198	341.59784	1629.11292	1481.53821	380.84348	1640.42151	1416.26135	297.73474	1436.06970	1430.40613	259.23462	1141.62366	1414.14709	439.48486	1363.15503	1415.32178	479.60043	1209.03027	1499.65149	241.81075	1243.60950	1254.26245	377.86438	1388.77759	1175.69983	351.02866	1202.05908	1174.36499	345.17184	1050.49939	1153.11328	397.65070	947.49426	1179.45325	489.43817	844.04095	1151.45532	437.50925	832.08813	1146.98157	495.03387	769.62170	1567.03711	382.30487	1398.05896	1674.29089	321.11002	1203.02380	1678.11401	315.48065	1078.02612	1708.63062	336.60767	959.33502	1684.61707	404.66647	835.87256	1728.98853	366.43686	841.42078	1721.55603	395.15149	759.36096	1328.17249	437.50632	936.39355	1544.92273	427.55606	939.78912	1375.82275	248.44260	946.40833	1520.92554	246.33336	946.31848	1282.30322	421.52805	603.21576	1304.15198	418.46732	468.85284	1297.46216	367.08881	285.49493	1357.00537	335.98059	71.27828	1407.59558	288.39584	43.18894	1355.90930	483.59622	35.13106	1615.52881	442.03430	610.64087	1603.19946	477.36383	459.15131	1591.63782	335.30298	356.84406	1537.04736	198.09308	206.44337	1475.05188	148.72888	205.15599	1559.55042	259.03687	78.01559	1413.41748	482.52402	1705.24597	-3101.94678	1973.05713	1023.86737	-3140.62793	2012.54089	1021.95941			 
159	1.580	1329.18787	467.10168	1660.79590	1435.86145	507.29968	1671.81738	1368.25830	351.73373	1629.68152	1481.34180	391.19019	1640.73413	1415.75549	307.21317	1436.43127	1429.72461	268.40530	1141.95618	1413.50696	448.78540	1363.33362	1414.47449	488.73856	1209.21021	1498.86707	250.86646	1243.97290	1253.78931	387.21713	1389.31262	1174.54163	361.75919	1202.64978	1173.02917	357.74475	1050.91687	1151.77844	412.74911	949.16064	1177.79749	507.26215	848.16119	1149.96375	455.63605	834.77826	1144.81189	514.83051	774.21484	1566.56592	391.47925	1398.10474	1673.05505	328.39679	1203.19995	1676.58337	321.85947	1078.38782	1707.46729	340.96741	959.58527	1683.97852	406.67807	834.64844	1728.31140	368.55878	841.28168	1721.19202	395.29541	758.44958	1326.68518	445.71759	936.50647	1543.48425	437.07654	940.55621	1376.06897	256.92529	946.81171	1521.24695	255.91771	947.09528	1281.81995	426.44891	602.85388	1303.50208	421.46243	468.44568	1297.25256	368.17358	285.63055	1357.00366	336.11160	71.23370	1407.61218	288.54352	43.58018	1355.88306	483.72839	35.08603	1614.78296	456.12097	612.59381	1601.67126	493.57391	461.47086	1590.72253	354.67935	355.19519	1536.81848	222.44490	200.55933	1475.06604	172.44061	196.83977	1559.67126	289.78287	75.79774	1413.10657	493.02792	1705.15454	-3101.86475	1973.15503	1023.38757	-3140.74341	2012.53845	1022.11884			 
160	1.590	1328.98132	477.15054	1660.85938	1435.60852	517.63153	1671.62000	1368.18054	361.80341	1630.11829	1481.22205	401.48584	1640.96802	1415.33716	316.78210	1436.69177	1428.95801	276.98776	1142.38977	1413.00012	458.13617	1363.46997	1413.66187	497.91125	1209.32996	1498.11731	260.09540	1244.31348	1253.30835	396.52014	1389.86401	1173.37415	372.48975	1203.33276	1171.77051	370.08810	1051.31189	1150.60303	428.43484	950.97565	1175.86304	524.93280	852.54517	1148.54907	473.56256	837.57336	1142.79016	534.31799	778.87030	1566.16248	400.71634	1398.04456	1671.80396	335.66086	1203.36218	1675.10046	328.22031	1078.72827	1706.32056	345.21078	959.77789	1683.40869	408.82343	833.55206	1727.50317	370.71622	841.11914	1720.93457	395.72464	757.77460	1325.31421	453.63702	936.37396	1542.06799	446.57419	941.25659	1376.35022	265.45193	947.17603	1521.79419	265.31323	947.77545	1281.39575	431.12228	602.50275	1302.80225	424.39780	468.12207	1297.18799	369.12701	285.71359	1357.30359	336.91873	71.36839	1407.92981	288.92664	43.88673	1355.75916	483.87012	35.02387	1614.44153	470.26385	614.76764	1600.63293	509.89789	464.10562	1590.15784	374.38934	352.75119	1536.72034	247.39484	193.59941	1475.07202	196.77087	187.05991	1559.88916	321.07462	73.16553	1412.94263	503.52182	1705.08679	-3102.04492	1973.02979	1023.81683	-3140.73926	2012.49585	1022.04199			 
161	1.600	1328.79895	487.22705	1661.00208	1435.46265	527.86188	1671.46228	1368.23340	371.72601	1630.60254	1481.25671	411.69318	1641.13965	1414.90710	326.22122	1436.98096	1428.41785	285.77121	1142.95923	1412.59558	467.53268	1363.59167	1412.93176	507.07230	1209.41638	1497.34839	269.21442	1244.61670	1252.93604	405.87711	1390.35815	1172.23633	383.11691	1204.05884	1170.48145	382.28903	1051.63953	1149.35632	443.38516	952.79163	1173.99353	542.38910	857.01630	1147.11914	491.14542	840.64740	1140.88098	553.51508	783.56085	1565.86609	410.00439	1397.96472	1670.52380	342.85522	1203.39990	1673.69580	334.55133	1078.97791	1705.18958	349.46286	959.95813	1683.16479	411.45395	832.78955	1726.81030	372.77914	840.98309	1720.73608	396.46329	757.28424	1324.02026	461.78006	936.28729	1540.75928	455.98874	941.76807	1376.62537	274.02521	947.45728	1522.21289	274.64746	948.35004	1280.98999	435.75076	602.15375	1302.22351	427.28238	467.78326	1297.25110	370.54071	285.85822	1357.43762	336.69580	71.59072	1408.47705	289.53976	44.30807	1355.77124	484.02792	35.04582	1614.50415	484.42657	617.00439	1599.22498	525.65729	466.24924	1589.81128	394.28519	349.38544	1536.55933	272.82761	185.82077	1475.95435	222.30513	177.16110	1560.15588	353.10028	70.43929	1412.82996	513.85742	1704.96912	-3101.90942	1972.98047	1023.71655	-3140.53198	2012.58521	1022.10571			 
